<svg id="Capa_1" enable-background="new 0 0 512 512" height="512" viewBox="0 0 512 512" width="512" xmlns="http://www.w3.org/2000/svg"><g id="Question_10_"><g><path d="m271 241h-30v-23.027c0-16.013 8.617-30.946 22.489-38.971 4.633-2.679 7.511-7.662 7.511-13.002 0-8.271-6.729-15-15-15s-15 6.729-15 15h-30c0-24.813 20.187-45 45-45s45 20.187 45 45c0 16.013-8.617 30.946-22.489 38.971-4.633 2.68-7.511 7.662-7.511 13.002z"/></g><g><path d="m241 271h30v30h-30z"/></g><g><path d="m256 421c-62.505 0-119.336-35.361-147.275-90.841-60.451-6.109-108.725-56.878-108.725-119.159 0-62.23 48.219-113.042 108.717-119.158 28.153-56.089 84.998-91.842 147.283-91.842s119.13 35.753 147.283 91.842c60.443 6.111 108.717 56.877 108.717 119.158 0 62.234-48.223 113.045-108.725 119.159-27.939 55.48-84.77 90.841-147.275 90.841zm0-391c-53.406 0-101.969 32.28-123.719 82.237l-3.823 8.781-9.575.227c-49.01 1.161-88.883 41.425-88.883 89.755s39.873 88.594 88.883 89.755l9.575.227 3.823 8.781c21.486 49.35 70.049 81.237 123.719 81.237s102.233-31.887 123.719-81.237l3.823-8.781 9.575-.227c49.01-1.161 88.883-41.425 88.883-89.755s-39.873-88.594-88.883-89.755l-9.575-.227-3.823-8.781c-21.75-49.957-70.313-82.237-123.719-82.237z"/></g><g><path d="m106 512c-24.813 0-45-20.187-45-45s20.187-45 45-45 45 20.187 45 45-20.187 45-45 45zm0-60c-8.271 0-15 6.729-15 15s6.729 15 15 15 15-6.729 15-15-6.729-15-15-15z"/></g></g></svg>